<mxfile host="Electron" modified="2024-03-27T08:44:47.930Z" agent="Mozilla/5.0 (Windows NT 10.0; Win64; x64) AppleWebKit/537.36 (KHTML, like Gecko) draw.io/24.0.4 Chrome/120.0.6099.109 Electron/28.1.0 Safari/537.36" etag="8Q6oze1IZSVfl9qRS1RA" version="24.0.4" type="device">
  <diagram name="logs-overview" id="22LjNMJfSTiD55XzmKw0">
    <mxGraphModel dx="1434" dy="836" grid="0" gridSize="10" guides="1" tooltips="1" connect="1" arrows="1" fold="1" page="0" pageScale="1" pageWidth="850" pageHeight="1100" background="#ffffff" math="0" shadow="0">
      <root>
        <mxCell id="0" />
        <mxCell id="1" parent="0" />
        <UserObject label="" tags="Background" id="Kap4E7lw-3v1DqWNah58-1">
          <mxCell style="vsdxID=7572;rotation=270;fillColor=#bfbfbf;gradientColor=none;fillOpacity=50;strokeOpacity=50;shape=stencil(nZFLDsIwDERP4y0KyQKxLuUCnCAihliEpEpL+ZyetANS6YJFs7JnXmxpTKZqvW2YtGq7nC58F9d5MjvSWqLnLF2pyNRkqlPKfM7pFh36xhZSq1Fhhz/rgdbK5uNBXgxts9r+PjAYck39sPwBVMF6foYp9HugQeIE/ZqL4D/oQnC2vhRjPAhOQkC6U38eZ5FwClO/AQ==);strokeColor=#bfbfbf;points=[];labelBackgroundColor=none;rounded=1;html=1;whiteSpace=wrap;" vertex="1" parent="1">
            <mxGeometry x="150" y="211" width="80" height="340" as="geometry" />
          </mxCell>
        </UserObject>
        <UserObject label="&lt;div style=&quot;font-size: 1px&quot;&gt;&lt;font style=&quot;font-size:19.76px;font-family:Segoe UI Semibold;color:#FFFFFF;direction:ltr;letter-spacing:0px;line-height:120%;opacity:1&quot;&gt;&lt;b&gt;Resource Logs&lt;/b&gt;&lt;/font&gt;&lt;font style=&quot;font-size:19.76px;font-family:Segoe UI Semibold;color:#ffffff;direction:ltr;letter-spacing:0px;line-height:120%;opacity:1&quot;&gt;&lt;b&gt;&lt;br/&gt;&lt;/b&gt;&lt;/font&gt;&lt;/div&gt;" tags="Background" id="Kap4E7lw-3v1DqWNah58-2">
          <mxCell style="verticalAlign=middle;align=center;overflow=width;vsdxID=7573;fillColor=#41719c;gradientColor=none;shape=stencil(nZFLDsIwDERP4y0KyQKxLuUCnCAihliEpEpL+ZyetANS6YJFs7JnXmxpTKZqvW2YtGq7nC58F9d5MjvSWqLnLF2pyNRkqlPKfM7pFh36xhZSq1Fhhz/rgdbK5uNBXgxts9r+PjAYck39sPwBVMF6foYp9HugQeIE/ZqL4D/oQnC2vhRjPAhOQkC6U38eZ5FwClO/AQ==);strokeColor=#41719c;points=[];labelBackgroundColor=none;rounded=1;html=1;whiteSpace=wrap;" vertex="1" parent="1">
            <mxGeometry x="40" y="361" width="300" height="40" as="geometry" />
          </mxCell>
        </UserObject>
        <UserObject label="" tags="Background" id="Kap4E7lw-3v1DqWNah58-3">
          <mxCell style="vsdxID=7575;rotation=270;fillColor=#bfbfbf;gradientColor=none;fillOpacity=50;strokeOpacity=50;shape=stencil(nZFLDsIwDERP4y0KyQKxLuUCnCAihliEpEpL+ZyetANS6YJFs7JnXmxpTKZqvW2YtGq7nC58F9d5MjvSWqLnLF2pyNRkqlPKfM7pFh36xhZSq1Fhhz/rgdbK5uNBXgxts9r+PjAYck39sPwBVMF6foYp9HugQeIE/ZqL4D/oQnC2vhRjPAhOQkC6U38eZ5FwClO/AQ==);strokeColor=#bfbfbf;points=[];labelBackgroundColor=none;rounded=1;html=1;whiteSpace=wrap;" vertex="1" parent="1">
            <mxGeometry x="150" y="111" width="80" height="340" as="geometry" />
          </mxCell>
        </UserObject>
        <UserObject label="&lt;div style=&quot;font-size: 1px&quot;&gt;&lt;font style=&quot;font-size:19.76px;font-family:Segoe UI Semibold;color:#FFFFFF;direction:ltr;letter-spacing:0px;line-height:120%;opacity:1&quot;&gt;&lt;b&gt;Activity Logs&lt;br/&gt;&lt;/b&gt;&lt;/font&gt;&lt;/div&gt;" tags="Background" id="Kap4E7lw-3v1DqWNah58-4">
          <mxCell style="verticalAlign=middle;align=center;overflow=width;vsdxID=7576;fillColor=#41719c;gradientColor=none;shape=stencil(nZFLDsIwDERP4y0KyQKxLuUCnCAihliEpEpL+ZyetANS6YJFs7JnXmxpTKZqvW2YtGq7nC58F9d5MjvSWqLnLF2pyNRkqlPKfM7pFh36xhZSq1Fhhz/rgdbK5uNBXgxts9r+PjAYck39sPwBVMF6foYp9HugQeIE/ZqL4D/oQnC2vhRjPAhOQkC6U38eZ5FwClO/AQ==);strokeColor=#41719c;points=[];labelBackgroundColor=none;rounded=1;html=1;whiteSpace=wrap;" vertex="1" parent="1">
            <mxGeometry x="40" y="261" width="300" height="40" as="geometry" />
          </mxCell>
        </UserObject>
        <UserObject label="" tags="Background" id="Kap4E7lw-3v1DqWNah58-5">
          <mxCell style="vsdxID=7577;rotation=270;fillColor=#bfbfbf;gradientColor=none;fillOpacity=50;strokeOpacity=50;shape=stencil(nZFLDsIwDERP4y0KyQKxLuUCnCAihliEpEpL+ZyetANS6YJFs7JnXmxpTKZqvW2YtGq7nC58F9d5MjvSWqLnLF2pyNRkqlPKfM7pFh36xhZSq1Fhhz/rgdbK5uNBXgxts9r+PjAYck39sPwBVMF6foYp9HugQeIE/ZqL4D/oQnC2vhRjPAhOQkC6U38eZ5FwClO/AQ==);strokeColor=#bfbfbf;points=[];labelBackgroundColor=none;rounded=1;html=1;whiteSpace=wrap;" vertex="1" parent="1">
            <mxGeometry x="150" y="11" width="80" height="340" as="geometry" />
          </mxCell>
        </UserObject>
        <UserObject label="&lt;div style=&quot;font-size: 1px&quot;&gt;&lt;font style=&quot;font-size:19.76px;font-family:Segoe UI Semibold;color:#ffffff;direction:ltr;letter-spacing:0px;line-height:120%;opacity:1&quot;&gt;&lt;b&gt;Azure Entra ID Logs&lt;/b&gt;&lt;/font&gt;&lt;font style=&quot;font-size:19.76px;font-family:Segoe UI Semibold;color:#FFFFFF;direction:ltr;letter-spacing:0px;line-height:120%;opacity:1&quot;&gt;&lt;b&gt;&lt;br&gt;&lt;/b&gt;&lt;/font&gt;&lt;/div&gt;" tags="Background" id="Kap4E7lw-3v1DqWNah58-6">
          <mxCell style="verticalAlign=middle;align=center;overflow=width;vsdxID=7578;fillColor=#41719c;gradientColor=none;shape=stencil(nZFLDsIwDERP4y0KyQKxLuUCnCAihliEpEpL+ZyetANS6YJFs7JnXmxpTKZqvW2YtGq7nC58F9d5MjvSWqLnLF2pyNRkqlPKfM7pFh36xhZSq1Fhhz/rgdbK5uNBXgxts9r+PjAYck39sPwBVMF6foYp9HugQeIE/ZqL4D/oQnC2vhRjPAhOQkC6U38eZ5FwClO/AQ==);strokeColor=#41719c;points=[];labelBackgroundColor=none;rounded=1;html=1;whiteSpace=wrap;" vertex="1" parent="1">
            <mxGeometry x="40" y="161" width="300" height="40" as="geometry" />
          </mxCell>
        </UserObject>
        <UserObject label="" tags="Background" id="Kap4E7lw-3v1DqWNah58-7">
          <mxCell style="vsdxID=7580;rotation=270;fillColor=#41719c;gradientColor=none;shape=stencil(nZFLDsIwDERP4y0KyQKxLuUCnCAihliEpEpL+ZyetANS6YJFs7JnXmxpTKZqvW2YtGq7nC58F9d5MjvSWqLnLF2pyNRkqlPKfM7pFh36xhZSq1Fhhz/rgdbK5uNBXgxts9r+PjAYck39sPwBVMF6foYp9HugQeIE/ZqL4D/oQnC2vhRjPAhOQkC6U38eZ5FwClO/AQ==);strokeColor=#41719c;points=[];labelBackgroundColor=none;rounded=1;html=1;whiteSpace=wrap;" vertex="1" parent="1">
            <mxGeometry x="390" y="251" width="480" height="260" as="geometry" />
          </mxCell>
        </UserObject>
        <UserObject label="" tags="Background" id="Kap4E7lw-3v1DqWNah58-15">
          <mxCell style="vsdxID=7588;fillColor=none;gradientColor=none;strokeColor=none;spacingTop=-3;spacingBottom=-3;spacingLeft=-3;spacingRight=-3;points=[];labelBackgroundColor=none;rounded=0;html=1;whiteSpace=wrap;" vertex="1" parent="1">
            <mxGeometry x="520" y="181" width="77" height="77" as="geometry" />
          </mxCell>
        </UserObject>
        <mxCell id="Kap4E7lw-3v1DqWNah58-16" style="vsdxID=7589;fillColor=none;gradientColor=none;strokeColor=none;spacingTop=-3;spacingBottom=-3;spacingLeft=-3;spacingRight=-3;points=[];labelBackgroundColor=none;rounded=0;html=1;whiteSpace=wrap;" vertex="1" parent="Kap4E7lw-3v1DqWNah58-15">
          <mxGeometry width="77" height="77" as="geometry" />
        </mxCell>
        <mxCell id="Kap4E7lw-3v1DqWNah58-17" style="vsdxID=7590;fillColor=#a0a1a2;gradientColor=none;shape=stencil(pZTdDsIgDIWfhlvS0cTN6znfY8mYI86xsPn39g6JYUpEwLu2nANfgZRgOXX1yAmDaVbyyK+imTuCO8KYGDquxLxEBCuCZSsVPyh5HhqTj7VW6ugkL3qHm/GBdjC4mww3NMuelb0R92JYiVlO8+I/wwZpsf1ugHSxg+JrFGKYo8S2EsAcJYbQ5nJGdRrOHG3IwHMnkCp1MN6btA8cyG2/T7LBS+8CRcp/NGyXA/lfxyfKvfQuTKTcgVkCO5Va0fdmqK3XP6fYUjITEKsH);strokeColor=none;strokeWidth=17;spacingTop=-3;spacingBottom=-3;spacingLeft=-3;spacingRight=-3;points=[];labelBackgroundColor=none;rounded=0;html=1;whiteSpace=wrap;" vertex="1" parent="Kap4E7lw-3v1DqWNah58-16">
          <mxGeometry y="19" width="57" height="57" as="geometry" />
        </mxCell>
        <mxCell id="Kap4E7lw-3v1DqWNah58-18" style="vsdxID=7591;fillColor=#0072c6;gradientColor=none;shape=stencil(fZLdDoMgDIWfhlsDbRbjtXPvYSZOMqcGdcO3n6T+ABrvWvgO7SllmPZV3kkGvB90+5Y/VQwVwzsDUE0ltRrmiGHGMC1bLV+6HZuC8i63pI0+7de+YEh341YCfKKUsgeRz1ETKugSIOJiwYXLcwNeOsFBYNAn0Cu/FKxV47Tmdyb4BXq7ZEMfcRwlie9jVWxOtoPViyNavezMqZuw7I4f52mOVSZ/pgYDq3jyY5dT8cg52FeiVHVNG+Xehys0H9H6YfYH);strokeColor=none;strokeWidth=17;spacingTop=-3;spacingBottom=-3;spacingLeft=-3;spacingRight=-3;points=[];labelBackgroundColor=none;rounded=0;html=1;whiteSpace=wrap;" vertex="1" parent="Kap4E7lw-3v1DqWNah58-16">
          <mxGeometry x="20" width="56" height="56" as="geometry" />
        </mxCell>
        <mxCell id="Kap4E7lw-3v1DqWNah58-19" style="vsdxID=7592;fillColor=#FFFFFF;gradientColor=none;shape=stencil(pZPdDoMgDIWfhlsCRZF7597DRJxkTgzqft5+MrJMZoZT79rynea0pIilXZW3EgHpeqPP8qaKvkLsgABUU0mj+jFCLEMsLbWRJ6OHpnB5m1vSRhd9tR3uTkesAsjDZcAxT16Vo4Nr1UxgmmAe7xNQQn7jZCu6YGMB9jcSUUyFJ4jC3WOBBewTBEedG1qJL9j5Q+BvSABm/q8G7Ly9bkCDY85NrMS3w2PwOadS1bW7xun79/mNJXe6LHsC);strokeColor=none;strokeWidth=17;spacingTop=-3;spacingBottom=-3;spacingLeft=-3;spacingRight=-3;points=[];labelBackgroundColor=none;rounded=0;html=1;whiteSpace=wrap;" vertex="1" parent="Kap4E7lw-3v1DqWNah58-16">
          <mxGeometry x="32" y="17" width="27" height="24" as="geometry" />
        </mxCell>
        <UserObject label="&lt;div style=&quot;font-size: 1px&quot;&gt;&lt;p style=&quot;text-align:left;margin-left:0;margin-right:0;margin-top:0px;margin-bottom:0px;text-indent:0;vertical-align:middle;direction:ltr;&quot;&gt;&lt;font style=&quot;font-size:19.76px;font-family:Segoe UI Semibold;color:#feffff;direction:ltr;letter-spacing:0px;line-height:120%;opacity:1&quot;&gt;&lt;b&gt;Azure Portal&lt;br/&gt;&lt;/b&gt;&lt;/font&gt;&lt;/p&gt;&lt;/div&gt;" tags="Background" id="Kap4E7lw-3v1DqWNah58-40">
          <mxCell style="verticalAlign=middle;align=left;overflow=width;vsdxID=7614;fillColor=none;gradientColor=none;shape=stencil(nZBLDoAgDERP0z3SIyjew0SURgSD+Lu9kMZoXLhwN9O+tukAlrNpJg1SzDH4QW/URgNYgZTkjA4UkwJUgGXng+6DX1zLfmoymdXo17xh5zmRJ6Q42BWCfc2oJfdAr+Yv+AP9Cb7OJ3H/2JG1HNGz/84klThPVCc=);strokeColor=none;points=[];labelBackgroundColor=none;rounded=0;html=1;whiteSpace=wrap;" vertex="1" parent="1">
            <mxGeometry x="620" y="521" width="120" height="40" as="geometry" />
          </mxCell>
        </UserObject>
        <UserObject label="&lt;div style=&quot;font-size: 1px&quot;&gt;&lt;p style=&quot;text-align:left;margin-left:0;margin-right:0;margin-top:0px;margin-bottom:0px;text-indent:0;vertical-align:middle;direction:ltr;&quot;&gt;&lt;font style=&quot;font-size:19.76px;font-family:Segoe UI Semibold;color:#feffff;direction:ltr;letter-spacing:0px;line-height:120%;opacity:1&quot;&gt;&lt;b&gt;Azure Storage&lt;br/&gt;&lt;/b&gt;&lt;/font&gt;&lt;/p&gt;&lt;/div&gt;" tags="Background" id="Kap4E7lw-3v1DqWNah58-41">
          <mxCell style="verticalAlign=middle;align=left;overflow=width;vsdxID=7615;fillColor=none;gradientColor=none;shape=stencil(nZBLDoAgDERP0z3SIyjew0SURgSD+Lu9kMZoXLhwN9O+tukAlrNpJg1SzDH4QW/URgNYgZTkjA4UkwJUgGXng+6DX1zLfmoymdXo17xh5zmRJ6Q42BWCfc2oJfdAr+Yv+AP9Cb7OJ3H/2JG1HNGz/84klThPVCc=);strokeColor=none;points=[];labelBackgroundColor=none;rounded=0;html=1;whiteSpace=wrap;" vertex="1" parent="1">
            <mxGeometry x="619" y="412" width="128" height="46" as="geometry" />
          </mxCell>
        </UserObject>
        <UserObject label="&lt;div style=&quot;font-size: 1px&quot;&gt;&lt;p style=&quot;text-align:left;margin-left:0;margin-right:0;margin-top:0px;margin-bottom:0px;text-indent:0;vertical-align:middle;direction:ltr;&quot;&gt;&lt;font style=&quot;font-size:19.76px;font-family:Segoe UI Semibold;color:#feffff;direction:ltr;letter-spacing:0px;line-height:120%;opacity:1&quot;&gt;&lt;b&gt;Event Hub&lt;br/&gt;&lt;/b&gt;&lt;/font&gt;&lt;/p&gt;&lt;/div&gt;" tags="Background" id="Kap4E7lw-3v1DqWNah58-42">
          <mxCell style="verticalAlign=middle;align=left;overflow=width;vsdxID=7616;fillColor=none;gradientColor=none;shape=stencil(nZBLDoAgDERP0z3SIyjew0SURgSD+Lu9kMZoXLhwN9O+tukAlrNpJg1SzDH4QW/URgNYgZTkjA4UkwJUgGXng+6DX1zLfmoymdXo17xh5zmRJ6Q42BWCfc2oJfdAr+Yv+AP9Cb7OJ3H/2JG1HNGz/84klThPVCc=);strokeColor=none;points=[];labelBackgroundColor=none;rounded=0;html=1;whiteSpace=wrap;" vertex="1" parent="1">
            <mxGeometry x="620" y="309" width="120" height="32" as="geometry" />
          </mxCell>
        </UserObject>
        <UserObject label="&lt;div style=&quot;font-size: 1px&quot;&gt;&lt;p style=&quot;text-align:left;margin-left:0;margin-right:0;margin-top:0px;margin-bottom:0px;text-indent:0;vertical-align:middle;direction:ltr;&quot;&gt;&lt;font style=&quot;font-size:19.76px;font-family:Segoe UI Semibold;color:#feffff;direction:ltr;letter-spacing:0px;line-height:120%;opacity:1&quot;&gt;&lt;b&gt;Log Analytics&lt;br/&gt;&lt;/b&gt;&lt;/font&gt;&lt;/p&gt;&lt;/div&gt;" tags="Background" id="Kap4E7lw-3v1DqWNah58-43">
          <mxCell style="verticalAlign=middle;align=left;overflow=width;vsdxID=7617;fillColor=none;gradientColor=none;shape=stencil(nZBLDoAgDERP0z3SIyjew0SURgSD+Lu9kMZoXLhwN9O+tukAlrNpJg1SzDH4QW/URgNYgZTkjA4UkwJUgGXng+6DX1zLfmoymdXo17xh5zmRJ6Q42BWCfc2oJfdAr+Yv+AP9Cb7OJ3H/2JG1HNGz/84klThPVCc=);strokeColor=none;points=[];labelBackgroundColor=none;rounded=0;html=1;whiteSpace=wrap;" vertex="1" parent="1">
            <mxGeometry x="620" y="203" width="120" height="38" as="geometry" />
          </mxCell>
        </UserObject>
        <UserObject label="&lt;div style=&quot;font-size: 1px&quot;&gt;&lt;font style=&quot;font-size:19.76px;font-family:Segoe UI Semibold;color:#FFFFFF;direction:ltr;letter-spacing:0px;line-height:120%;opacity:1&quot;&gt;&lt;i&gt;&lt;b&gt;N&lt;br/&gt;&lt;/b&gt;&lt;/i&gt;&lt;/font&gt;&lt;/div&gt;" tags="Background" id="Kap4E7lw-3v1DqWNah58-44">
          <mxCell style="verticalAlign=middle;align=center;overflow=width;vsdxID=7619;rotation=270;fillColor=#bfbfbf;gradientColor=none;fillOpacity=50;strokeOpacity=50;shape=stencil(nZFLDsIwDERP4y0KyQKxLuUCnCAihliEpEpL+ZyetANS6YJFs7JnXmxpTKZqvW2YtGq7nC58F9d5MjvSWqLnLF2pyNRkqlPKfM7pFh36xhZSq1Fhhz/rgdbK5uNBXgxts9r+PjAYck39sPwBVMF6foYp9HugQeIE/ZqL4D/oQnC2vhRjPAhOQkC6U38eZ5FwClO/AQ==);strokeColor=#bfbfbf;points=[];labelBackgroundColor=none;rounded=1;html=1;whiteSpace=wrap;" vertex="1" parent="1">
            <mxGeometry x="150" y="311" width="80" height="340" as="geometry" />
          </mxCell>
        </UserObject>
        <UserObject label="&lt;div style=&quot;font-size: 1px&quot;&gt;&lt;font style=&quot;font-size:19.76px;font-family:Segoe UI Semibold;color:#FFFFFF;direction:ltr;letter-spacing:0px;line-height:120%;opacity:1&quot;&gt;&lt;b&gt;NSG Flow Logs&lt;/b&gt;&lt;/font&gt;&lt;font style=&quot;font-size:19.76px;font-family:Segoe UI Semibold;color:#ffffff;direction:ltr;letter-spacing:0px;line-height:120%;opacity:1&quot;&gt;&lt;b&gt;&lt;br/&gt;&lt;/b&gt;&lt;/font&gt;&lt;/div&gt;" tags="Background" id="Kap4E7lw-3v1DqWNah58-45">
          <mxCell style="verticalAlign=middle;align=center;overflow=width;vsdxID=7620;fillColor=#41719c;gradientColor=none;shape=stencil(nZFLDsIwDERP4y0KyQKxLuUCnCAihliEpEpL+ZyetANS6YJFs7JnXmxpTKZqvW2YtGq7nC58F9d5MjvSWqLnLF2pyNRkqlPKfM7pFh36xhZSq1Fhhz/rgdbK5uNBXgxts9r+PjAYck39sPwBVMF6foYp9HugQeIE/ZqL4D/oQnC2vhRjPAhOQkC6U38eZ5FwClO/AQ==);strokeColor=#41719c;points=[];labelBackgroundColor=none;rounded=1;html=1;whiteSpace=wrap;" vertex="1" parent="1">
            <mxGeometry x="40" y="461" width="300" height="40" as="geometry" />
          </mxCell>
        </UserObject>
        <UserObject label="&lt;div style=&quot;font-size: 1px&quot;&gt;&lt;font style=&quot;font-size:19.76px;font-family:Segoe UI Semibold;color:#FFFFFF;direction:ltr;letter-spacing:0px;line-height:120%;opacity:1&quot;&gt;&lt;i&gt;&lt;b&gt;N&lt;br/&gt;&lt;/b&gt;&lt;/i&gt;&lt;/font&gt;&lt;/div&gt;" tags="Background" id="Kap4E7lw-3v1DqWNah58-46">
          <mxCell style="verticalAlign=middle;align=center;overflow=width;vsdxID=7623;rotation=270;fillColor=#bfbfbf;gradientColor=none;fillOpacity=50;strokeOpacity=50;shape=stencil(nZFLDsIwDERP4y0KyQKxLuUCnCAihliEpEpL+ZyetANS6YJFs7JnXmxpTKZqvW2YtGq7nC58F9d5MjvSWqLnLF2pyNRkqlPKfM7pFh36xhZSq1Fhhz/rgdbK5uNBXgxts9r+PjAYck39sPwBVMF6foYp9HugQeIE/ZqL4D/oQnC2vhRjPAhOQkC6U38eZ5FwClO/AQ==);strokeColor=#bfbfbf;points=[];labelBackgroundColor=none;rounded=1;html=1;whiteSpace=wrap;" vertex="1" parent="1">
            <mxGeometry x="150" y="411" width="80" height="340" as="geometry" />
          </mxCell>
        </UserObject>
        <UserObject label="&lt;div style=&quot;font-size: 1px&quot;&gt;&lt;font style=&quot;font-size:19.76px;font-family:Segoe UI Semibold;color:#FFFFFF;direction:ltr;letter-spacing:0px;line-height:120%;opacity:1&quot;&gt;&lt;b&gt;Virtual Machine Logs&lt;/b&gt;&lt;/font&gt;&lt;font style=&quot;font-size:19.76px;font-family:Segoe UI Semibold;color:#ffffff;direction:ltr;letter-spacing:0px;line-height:120%;opacity:1&quot;&gt;&lt;b&gt;&lt;br/&gt;&lt;/b&gt;&lt;/font&gt;&lt;/div&gt;" tags="Background" id="Kap4E7lw-3v1DqWNah58-47">
          <mxCell style="verticalAlign=middle;align=center;overflow=width;vsdxID=7624;fillColor=#41719c;gradientColor=none;shape=stencil(nZFLDsIwDERP4y0KyQKxLuUCnCAihliEpEpL+ZyetANS6YJFs7JnXmxpTKZqvW2YtGq7nC58F9d5MjvSWqLnLF2pyNRkqlPKfM7pFh36xhZSq1Fhhz/rgdbK5uNBXgxts9r+PjAYck39sPwBVMF6foYp9HugQeIE/ZqL4D/oQnC2vhRjPAhOQkC6U38eZ5FwClO/AQ==);strokeColor=#41719c;points=[];labelBackgroundColor=none;rounded=1;html=1;whiteSpace=wrap;" vertex="1" parent="1">
            <mxGeometry x="40" y="561" width="300" height="40" as="geometry" />
          </mxCell>
        </UserObject>
        <UserObject label="" tags="Background" id="Kap4E7lw-3v1DqWNah58-48">
          <mxCell style="vsdxID=7579;edgeStyle=none;startArrow=classic;endArrow=none;startSize=2;endSize=2;strokeWidth=3;strokeColor=#7f7f7f;spacingTop=0;spacingBottom=0;spacingLeft=0;spacingRight=0;verticalAlign=middle;html=1;labelBackgroundColor=#FFFFFF;rounded=0;" edge="1" parent="1">
            <mxGeometry relative="1" as="geometry">
              <Array as="points" />
              <mxPoint x="500" y="181" as="sourcePoint" />
              <mxPoint x="360" y="181" as="targetPoint" />
            </mxGeometry>
          </mxCell>
        </UserObject>
        <UserObject label="" tags="Background" id="Kap4E7lw-3v1DqWNah58-49">
          <mxCell style="vsdxID=7612;edgeStyle=none;startArrow=classic;endArrow=none;startSize=2;endSize=2;strokeWidth=3;strokeColor=#7f7f7f;spacingTop=0;spacingBottom=0;spacingLeft=0;spacingRight=0;verticalAlign=middle;html=1;labelBackgroundColor=#FFFFFF;rounded=0;" edge="1" parent="1">
            <mxGeometry relative="1" as="geometry">
              <Array as="points" />
              <mxPoint x="500" y="281" as="sourcePoint" />
              <mxPoint x="360" y="281" as="targetPoint" />
            </mxGeometry>
          </mxCell>
        </UserObject>
        <UserObject label="" tags="Background" id="Kap4E7lw-3v1DqWNah58-50">
          <mxCell style="vsdxID=7613;edgeStyle=none;startArrow=classic;endArrow=none;startSize=2;endSize=2;strokeWidth=3;strokeColor=#7f7f7f;spacingTop=0;spacingBottom=0;spacingLeft=0;spacingRight=0;verticalAlign=middle;html=1;labelBackgroundColor=#FFFFFF;rounded=0;" edge="1" parent="1">
            <mxGeometry relative="1" as="geometry">
              <Array as="points" />
              <mxPoint x="500" y="381" as="sourcePoint" />
              <mxPoint x="360" y="381" as="targetPoint" />
            </mxGeometry>
          </mxCell>
        </UserObject>
        <UserObject label="" tags="Background" id="Kap4E7lw-3v1DqWNah58-51">
          <mxCell style="vsdxID=7621;edgeStyle=none;startArrow=classic;endArrow=none;startSize=2;endSize=2;strokeWidth=3;strokeColor=#7f7f7f;spacingTop=0;spacingBottom=0;spacingLeft=0;spacingRight=0;verticalAlign=middle;html=1;labelBackgroundColor=#FFFFFF;rounded=0;" edge="1" parent="1">
            <mxGeometry relative="1" as="geometry">
              <Array as="points" />
              <mxPoint x="500" y="481" as="sourcePoint" />
              <mxPoint x="360" y="481" as="targetPoint" />
            </mxGeometry>
          </mxCell>
        </UserObject>
        <UserObject label="" tags="Background" id="Kap4E7lw-3v1DqWNah58-52">
          <mxCell style="vsdxID=7625;edgeStyle=none;startArrow=classic;endArrow=none;startSize=2;endSize=2;strokeWidth=3;strokeColor=#7f7f7f;spacingTop=0;spacingBottom=0;spacingLeft=0;spacingRight=0;verticalAlign=middle;html=1;labelBackgroundColor=#FFFFFF;rounded=0;" edge="1" parent="1">
            <mxGeometry relative="1" as="geometry">
              <Array as="points" />
              <mxPoint x="500" y="581" as="sourcePoint" />
              <mxPoint x="360" y="581" as="targetPoint" />
            </mxGeometry>
          </mxCell>
        </UserObject>
        <mxCell id="Kap4E7lw-3v1DqWNah58-53" value="" style="image;aspect=fixed;html=1;points=[];align=center;fontSize=12;image=img/lib/azure2/iot/Event_Hubs.svg;" vertex="1" parent="1">
          <mxGeometry x="527" y="303" width="67" height="60" as="geometry" />
        </mxCell>
        <mxCell id="Kap4E7lw-3v1DqWNah58-54" value="" style="image;aspect=fixed;html=1;points=[];align=center;fontSize=12;image=img/lib/azure2/storage/Storage_Accounts.svg;" vertex="1" parent="1">
          <mxGeometry x="535" y="409" width="65" height="52" as="geometry" />
        </mxCell>
        <mxCell id="Kap4E7lw-3v1DqWNah58-56" value="" style="image;aspect=fixed;html=1;points=[];align=center;fontSize=12;image=img/lib/azure2/general/Launch_Portal.svg;" vertex="1" parent="1">
          <mxGeometry x="533.5" y="501" width="68" height="67" as="geometry" />
        </mxCell>
      </root>
    </mxGraphModel>
  </diagram>
</mxfile>
